# xmcd CD database file
#
# Track frame offsets:
#	150
#	43190
#	70644
#	126548
#	167971
#	216505
#	267761
#
# Disc length: 4086 seconds
#
# Revision: 0
# Processed by: cddbd v1.5.2PL0 Copyright (c) Steve Scherf et al.
# Submitted via: CDex 1.70beta2
#
DISCID=6e0ff407
DTITLE=Johannes Müllers Jazz Mile - Night Grooves
DYEAR=2010
DGENRE=Jazz
TTITLE0=Rio Jazz
TTITLE1=In the wee small hours
TTITLE2=Esmeralda
TTITLE3=Providence
TTITLE4=Foggy Lake
TTITLE5=Mixoliscious
TTITLE6=Schaltjahr
EXTD=YEAR: 2010
EXTT0=
EXTT1=
EXTT2=
EXTT3=
EXTT4=
EXTT5=
EXTT6=
PLAYORDER=
